PathFileType	4	(X/Y/Z)	C:\Users\°ÂÌØÂü\Desktop\20210112\bx_y_10_901-Unnamed.trc
DataRate	CameraRate	NumFrames	NumMarkers	Units	OrigDataRate	OrigDataStartFrame	OrigNumFrames
50.00	50.00	       4	0	mm	50.00	199	       530
Frame#	Time	
		

199	3.960	-410.14847	86.13493	1671.83606	-743.50769	-16.95928	807.08630	-793.44073	137.91623	567.56244	-954.32227	78.62582	1078.93420	-728.03326	68.75069	221.41006	-809.40027	267.67685	873.32385	-835.11072	275.75330	744.78198	-678.85016	175.52048	162.78322	-828.25116	242.71387	566.77173	-850.96802	255.61853	486.86584	-518.13275	-72.48153	143.16872	-503.22977	261.49509	1389.51489	-605.56689	17.02330	170.26042	-677.98462	51.50668	164.08022	-721.83972	157.15134	222.11705	-777.00018	228.00766	201.04692	-598.32855	222.44174	174.29575	-882.87000	295.73108	144.34874	-563.40088	256.64682	166.01118	-833.13055	-65.06064	708.61298	-628.19421	305.76920	160.56436	-528.12225	303.93661	146.30251	-666.10175	298.74265	159.23994	-506.78458	-91.81194	1381.52917	-773.86224	-14.22208	201.64357	-799.05475	47.95787	171.18898	-801.41156	177.15947	180.70299	-840.42969	-46.59964	472.15332	-562.85284	-38.37783	163.36928	-664.27716	-70.43733	160.04350	-876.05151	-78.64049	141.43311	-762.06897	-21.25252	1018.04382	-753.33044	6.66760	524.66113	-813.09851	-36.51955	558.94592	-747.26807	198.68123	815.23193	-622.63861	-81.32179	156.20514	-840.95007	245.82028	627.66223	-811.44659	-40.83829	610.07190	-766.87500	199.88889	534.89044	
200	3.980	-424.63803	85.24197	1685.38489	-740.59814	-16.99962	807.18231	-791.11316	138.42188	568.32758	-952.14740	79.59700	1077.81860	-727.67151	68.68420	220.86285	-805.22540	267.81555	874.29346	-830.86786	275.54492	746.02344	-678.66278	175.43294	162.59935	-825.90863	242.88995	567.05811	-848.29645	256.19345	487.86423	-518.10126	-72.57690	143.14565	-511.45099	260.99847	1400.31677	-605.53442	17.22747	169.95230	-678.09314	51.66733	164.05988	-721.09668	156.59023	222.35347	-776.65045	227.81815	201.36636	-598.58282	222.20198	173.54355	-883.00848	295.78888	144.55910	-563.08838	256.52991	165.74533	-830.70911	-64.70042	708.96887	-628.09924	305.77783	160.63467	-528.08264	303.95187	146.40143	-666.01556	298.57751	159.45515	-515.57776	-92.04249	1392.36707	-773.71960	-13.83638	202.10748	-798.82288	48.33823	171.31940	-801.29987	177.21471	180.90987	-838.65857	-45.86040	472.82581	-562.74384	-38.82857	163.35649	-664.33533	-70.47224	159.94099	-876.51282	-77.91744	140.91969	-759.77887	-21.13249	1019.96637	-751.76001	6.83638	524.86768	-811.30151	-35.95748	559.47058	-742.94299	199.57341	815.34906	-622.60986	-81.45077	156.32727	-838.28967	246.61977	628.92261	-809.28699	-40.25261	610.31067	-763.95209	200.55402	535.23615	-751.96790	197.40836	1035.80908	
201	4.000	-438.87357	84.01244	1698.66907	-737.61646	-16.94378	807.64398	-788.51593	138.66147	568.42700	-950.12665	80.76026	1077.62708	-727.46887	68.91034	220.71445	-801.09711	268.22986	874.62549	-826.53424	276.66653	746.87701	-678.63867	175.23964	162.17845	-822.95831	243.04697	567.58490	-846.09363	256.37808	488.43774	-518.21173	-72.68569	142.86319	-518.67566	260.57596	1411.21497	-605.28754	17.16766	169.91574	-677.85657	51.48737	163.54169	-721.40045	156.78903	222.16737	-776.47015	228.01059	201.66045	-598.44727	222.08104	173.50789	-882.87329	295.98944	144.79317	-562.93787	256.49606	165.75479	-828.25348	-63.62649	709.51245	-628.04370	305.79581	160.70421	-528.19037	304.03256	146.50311	-665.79437	298.69998	159.47205	-523.72723	-92.76037	1403.37463	-773.61115	-13.73485	201.93983	-798.91034	48.13585	171.46159	-801.12970	177.29716	180.84418	-837.21478	-45.98610	473.65616	-562.67419	-38.84462	163.10556	-664.41095	-70.41039	159.97948	-876.54596	-78.05263	141.29375	-756.87988	-21.06012	1022.40186	-749.91669	7.12010	524.83661	-809.55847	-35.67589	559.84717	-739.16992	199.15285	816.39301	-622.82690	-81.50117	156.25070	-835.26440	246.41235	629.60095	-807.20691	-39.35025	610.37231	-761.84277	200.23781	535.60425	-749.21838	198.05908	1038.16284	
202	4.020	-453.39203	83.05485	1711.14050	-734.65643	-17.09671	808.21710	-785.86621	138.91609	568.93073	-948.24115	81.17590	1077.30249	-727.17151	69.17587	221.00072	-797.02545	268.13452	875.47797	-821.84900	278.67514	748.91241	-678.56641	175.33488	162.29248	-820.23932	243.82193	568.31158	-844.19135	256.91071	489.29254	-518.16656	-72.54920	143.03833	-526.57465	259.89642	1421.27246	-605.39655	16.93686	169.89439	-677.90454	51.57215	163.42781	-720.89905	156.51668	221.60393	-776.48883	227.88882	201.52792	-598.22864	221.95769	173.62996	-882.91595	295.90149	144.46626	-563.00348	256.59604	165.80348	-825.07025	-64.04861	710.71564	-628.04370	305.79581	160.70421	-528.11285	303.96335	146.63982	-665.84894	298.51993	159.44604	-532.47211	-93.18299	1413.75964	-773.65503	-13.60891	202.24011	-798.66919	48.36409	171.63750	-800.97858	177.28973	180.88762	-835.40192	-45.50944	474.05997	-562.70062	-39.13130	163.01704	-664.31293	-70.56797	159.86197	-876.44800	-78.08150	141.09125	-754.14215	-20.54077	1024.79297	-747.53589	7.26996	524.90625	-807.35931	-35.53789	560.60077	-734.37634	199.10565	815.95978	-622.63226	-81.51154	156.36273	-832.37598	246.70715	630.29858	-804.86664	-39.67283	611.38727	-759.91577	199.99434	535.36121	-745.11755	198.13319	1040.73010	
